HIERARCHY
ROOT Hips
{
	OFFSET 0.764148 87.890884 8.039708
	CHANNELS 6 Xposition Yposition Zposition Zrotation Yrotation Xrotation 
	JOINT Spine
	{
		OFFSET -0.000000 8.814246 -2.080107
		CHANNELS 3 Zrotation Yrotation Xrotation
		JOINT Spine1
		{
			OFFSET 0.000000 8.844141 0.000000
			CHANNELS 3 Zrotation Yrotation Xrotation
			JOINT Spine2
			{
				OFFSET -0.000000 11.682268 -0.000000
				CHANNELS 3 Zrotation Yrotation Xrotation
				JOINT Spine3
				{
					OFFSET 0.000000 11.746700 0.000000
					CHANNELS 3 Zrotation Yrotation Xrotation
					JOINT Neck
					{
						OFFSET 0.000000 17.658264 0.000000
						CHANNELS 3 Zrotation Yrotation Xrotation
						JOINT Neck1
						{
							OFFSET -0.000000 5.101515 0.000000
							CHANNELS 3 Zrotation Yrotation Xrotation
							JOINT Head
							{
								OFFSET 0.000000 5.101515 -0.000000
								CHANNELS 3 Zrotation Yrotation Xrotation
								JOINT HeadEnd
								{
									OFFSET 0.000000 11.655085 0.000000
									CHANNELS 3 Zrotation Yrotation Xrotation
									End Site
									{
										OFFSET 0.000000 0.000000 0.000000
									}
								}
							}
						}
					}
					JOINT RightShoulder
					{
						OFFSET -2.625389 11.175210 -0.000000
						CHANNELS 3 Zrotation Yrotation Xrotation
						JOINT RightArm
						{
							OFFSET 0.000000 10.434715 -0.000000
							CHANNELS 3 Zrotation Yrotation Xrotation
							JOINT RightForeArm
							{
								OFFSET 0.000000 29.628420 -0.000000
								CHANNELS 3 Zrotation Yrotation Xrotation
								JOINT RightHand
								{
									OFFSET 0.000000 22.857611 0.000000
									CHANNELS 3 Zrotation Yrotation Xrotation
									JOINT RightHandThumb1
									{
										OFFSET -2.867323 3.959563 2.944291
										CHANNELS 3 Zrotation Yrotation Xrotation
										JOINT RightHandThumb2
										{
											OFFSET 0.000000 3.350399 -0.000000
											CHANNELS 3 Zrotation Yrotation Xrotation
											JOINT RightHandThumb3
											{
												OFFSET 0.000000 3.756509 -0.000000
												CHANNELS 3 Zrotation Yrotation Xrotation
												JOINT RightHandThumb4
												{
													OFFSET 0.000000 3.147345 -0.000000
													CHANNELS 3 Zrotation Yrotation Xrotation
													End Site
													{
														OFFSET 0.000000 0.000000 0.000000
													}
												}
											}
										}
									}
									JOINT RightHandIndex1
									{
										OFFSET -0.086752 10.030893 2.345280
										CHANNELS 3 Zrotation Yrotation Xrotation
										JOINT RightHandIndex2
										{
											OFFSET -0.000000 4.061090 -0.000000
											CHANNELS 3 Zrotation Yrotation Xrotation
											JOINT RightHandIndex3
											{
												OFFSET 0.000000 3.248873 -0.000000
												CHANNELS 3 Zrotation Yrotation Xrotation
												JOINT RightHandIndex4
												{
													OFFSET 0.000000 2.639709 0.000000
													CHANNELS 3 Zrotation Yrotation Xrotation
													End Site
													{
														OFFSET 0.000000 0.000000 0.000000
													}
												}
											}
										}
									}
									JOINT RightHandMiddle1
									{
										OFFSET 0.104102 9.502952 0.006768
										CHANNELS 3 Zrotation Yrotation Xrotation
										JOINT RightHandMiddle2
										{
											OFFSET 0.000000 4.568727 -0.000000
											CHANNELS 3 Zrotation Yrotation Xrotation
											JOINT RightHandMiddle3
											{
												OFFSET 0.000000 3.654981 -0.000000
												CHANNELS 3 Zrotation Yrotation Xrotation
												JOINT RightHandMiddle4
												{
													OFFSET 0.000000 2.741236 -0.000000
													CHANNELS 3 Zrotation Yrotation Xrotation
													End Site
													{
														OFFSET 0.000000 0.000000 0.000000
													}
												}
											}
										}
									}
									JOINT RightHandRing1
									{
										OFFSET 0.086752 8.921708 -2.267442
										CHANNELS 3 Zrotation Yrotation Xrotation
										JOINT RightHandRing2
										{
											OFFSET 0.000000 4.061090 -0.000000
											CHANNELS 3 Zrotation Yrotation Xrotation
											JOINT RightHandRing3
											{
												OFFSET -0.000000 3.654981 -0.000000
												CHANNELS 3 Zrotation Yrotation Xrotation
												JOINT RightHandRing4
												{
													OFFSET -0.000000 2.741236 -0.000000
													CHANNELS 3 Zrotation Yrotation Xrotation
													End Site
													{
														OFFSET 0.000000 0.000000 0.000000
													}
												}
											}
										}
									}
									JOINT RightHandPinky1
									{
										OFFSET -0.173504 7.976997 -4.467199
										CHANNELS 3 Zrotation Yrotation Xrotation
										JOINT RightHandPinky2
										{
											OFFSET -0.000000 3.350399 -0.000000
											CHANNELS 3 Zrotation Yrotation Xrotation
											JOINT RightHandPinky3
											{
												OFFSET 0.000000 2.842763 0.000000
												CHANNELS 3 Zrotation Yrotation Xrotation
												JOINT RightHandPinky4
												{
													OFFSET -0.000000 2.639709 -0.000000
													CHANNELS 3 Zrotation Yrotation Xrotation
													End Site
													{
														OFFSET 0.000000 0.000000 0.000000
													}
												}
											}
										}
									}
									JOINT RightForeArmEnd
									{
										OFFSET 0.000000 0.000000 0.000000
										CHANNELS 3 Zrotation Yrotation Xrotation
										End Site
										{
											OFFSET 0.000000 0.000000 0.000000
										}
									}
								}
								JOINT RightArmEnd
								{
									OFFSET 0.000000 0.000000 0.000000
									CHANNELS 3 Zrotation Yrotation Xrotation
									End Site
									{
										OFFSET 0.000000 0.000000 0.000000
									}
								}
							}
						}
					}
					JOINT LeftShoulder
					{
						OFFSET 2.625389 11.175210 0.000000
						CHANNELS 3 Zrotation Yrotation Xrotation
						JOINT LeftArm
						{
							OFFSET -0.000000 10.813635 -0.000000
							CHANNELS 3 Zrotation Yrotation Xrotation
							JOINT LeftForeArm
							{
								OFFSET -0.000000 28.724781 0.000000
								CHANNELS 3 Zrotation Yrotation Xrotation
								JOINT LeftHand
								{
									OFFSET 0.644384 25.716167 -0.328871
									CHANNELS 3 Zrotation Yrotation Xrotation
									JOINT LeftHandThumb1
									{
										OFFSET 2.867323 3.959563 2.944291
										CHANNELS 3 Zrotation Yrotation Xrotation
										JOINT LeftHandThumb2
										{
											OFFSET 0.000000 3.350399 0.000000
											CHANNELS 3 Zrotation Yrotation Xrotation
											JOINT LeftHandThumb3
											{
												OFFSET 0.000000 3.756509 0.000000
												CHANNELS 3 Zrotation Yrotation Xrotation
												JOINT LeftHandThumb4
												{
													OFFSET -0.000000 3.100000 -0.000000
													CHANNELS 3 Zrotation Yrotation Xrotation
													End Site
													{
														OFFSET 0.000000 0.000000 0.000000
													}
												}
											}
										}
									}
									JOINT LeftHandIndex1
									{
										OFFSET 0.086752 10.030893 2.345280
										CHANNELS 3 Zrotation Yrotation Xrotation
										JOINT LeftHandIndex2
										{
											OFFSET 0.000000 4.061090 0.000000
											CHANNELS 3 Zrotation Yrotation Xrotation
											JOINT LeftHandIndex3
											{
												OFFSET -0.000000 3.248873 -0.000000
												CHANNELS 3 Zrotation Yrotation Xrotation
												JOINT LeftHandIndex4
												{
													OFFSET -0.000000 2.639709 0.000000
													CHANNELS 3 Zrotation Yrotation Xrotation
													End Site
													{
														OFFSET 0.000000 0.000000 0.000000
													}
												}
											}
										}
									}
									JOINT LeftHandMiddle1
									{
										OFFSET -0.104102 9.502952 0.006768
										CHANNELS 3 Zrotation Yrotation Xrotation
										JOINT LeftHandMiddle2
										{
											OFFSET -0.000000 4.568727 0.000000
											CHANNELS 3 Zrotation Yrotation Xrotation
											JOINT LeftHandMiddle3
											{
												OFFSET -0.000000 3.654981 0.000000
												CHANNELS 3 Zrotation Yrotation Xrotation
												JOINT LeftHandMiddle4
												{
													OFFSET 0.000000 2.741236 0.000000
													CHANNELS 3 Zrotation Yrotation Xrotation
													End Site
													{
														OFFSET 0.000000 0.000000 0.000000
													}
												}
											}
										}
									}
									JOINT LeftHandRing1
									{
										OFFSET -0.086752 8.921708 -2.267442
										CHANNELS 3 Zrotation Yrotation Xrotation
										JOINT LeftHandRing2
										{
											OFFSET 0.000000 4.061090 0.000000
											CHANNELS 3 Zrotation Yrotation Xrotation
											JOINT LeftHandRing3
											{
												OFFSET 0.000000 3.654981 0.000000
												CHANNELS 3 Zrotation Yrotation Xrotation
												JOINT LeftHandRing4
												{
													OFFSET 0.000000 2.741236 -0.000000
													CHANNELS 3 Zrotation Yrotation Xrotation
													End Site
													{
														OFFSET 0.000000 0.000000 0.000000
													}
												}
											}
										}
									}
									JOINT LeftHandPinky1
									{
										OFFSET 0.173504 7.976997 -4.467199
										CHANNELS 3 Zrotation Yrotation Xrotation
										JOINT LeftHandPinky2
										{
											OFFSET 0.000000 3.350399 -0.000000
											CHANNELS 3 Zrotation Yrotation Xrotation
											JOINT LeftHandPinky3
											{
												OFFSET 0.000000 2.842763 -0.000000
												CHANNELS 3 Zrotation Yrotation Xrotation
												JOINT LeftHandPinky4
												{
													OFFSET -0.000000 2.639709 -0.000000
													CHANNELS 3 Zrotation Yrotation Xrotation
													End Site
													{
														OFFSET 0.000000 0.000000 0.000000
													}
												}
											}
										}
									}
									JOINT LeftForeArmEnd
									{
										OFFSET 0.000000 0.000000 0.000000
										CHANNELS 3 Zrotation Yrotation Xrotation
										End Site
										{
											OFFSET 0.000000 0.000000 0.000000
										}
									}
								}
								JOINT LeftArmEnd
								{
									OFFSET 0.000000 0.000000 0.000000
									CHANNELS 3 Zrotation Yrotation Xrotation
									End Site
									{
										OFFSET 0.000000 0.000000 0.000000
									}
								}
							}
						}
					}
				}
			}
		}
	}
	JOINT RightUpLeg
	{
		OFFSET -11.289943 -0.000000 0.000000
		CHANNELS 3 Zrotation Yrotation Xrotation
		JOINT RightLeg
		{
			OFFSET 0.000000 -38.200325 -0.000000
			CHANNELS 3 Zrotation Yrotation Xrotation
			JOINT RightFoot
			{
				OFFSET 0.000000 -39.900856 0.000000
				CHANNELS 3 Zrotation Yrotation Xrotation
				JOINT RightToeBase
				{
					OFFSET -0.000000 -0.000000 15.261641
					CHANNELS 3 Zrotation Yrotation Xrotation
					JOINT RightToeBaseEnd
					{
						OFFSET 0.000000 0.000000 7.370709
						CHANNELS 3 Zrotation Yrotation Xrotation
						End Site
						{
							OFFSET 0.000000 0.000000 0.000000
						}
					}
				}
				JOINT RightLegEnd
				{
					OFFSET 0.000000 0.000000 0.000000
					CHANNELS 3 Zrotation Yrotation Xrotation
					End Site
					{
						OFFSET 0.000000 0.000000 0.000000
					}
				}
			}
			JOINT RightUpLegEnd
			{
				OFFSET 0.000000 0.000000 0.000000
				CHANNELS 3 Zrotation Yrotation Xrotation
				End Site
				{
					OFFSET 0.000000 0.000000 0.000000
				}
			}
		}
	}
	JOINT LeftUpLeg
	{
		OFFSET 11.315661 0.000000 0.000000
		CHANNELS 3 Zrotation Yrotation Xrotation
		JOINT LeftLeg
		{
			OFFSET -0.000000 -38.200325 0.000000
			CHANNELS 3 Zrotation Yrotation Xrotation
			JOINT LeftFoot
			{
				OFFSET 0.000000 -39.900856 0.000000
				CHANNELS 3 Zrotation Yrotation Xrotation
				JOINT LeftToeBase
				{
					OFFSET 0.000000 -0.000000 15.261641
					CHANNELS 3 Zrotation Yrotation Xrotation
					JOINT LeftToeBaseEnd
					{
						OFFSET -0.000000 0.000000 7.539996
						CHANNELS 3 Zrotation Yrotation Xrotation
						End Site
						{
							OFFSET 0.000000 0.000000 0.000000
						}
					}
				}
				JOINT LeftLegEnd
				{
					OFFSET 0.000000 0.000000 0.000000
					CHANNELS 3 Zrotation Yrotation Xrotation
					End Site
					{
						OFFSET 0.000000 0.000000 0.000000
					}
				}
			}
			JOINT LeftUpLegEnd
			{
				OFFSET 0.000000 0.000000 0.000000
				CHANNELS 3 Zrotation Yrotation Xrotation
				End Site
				{
					OFFSET 0.000000 0.000000 0.000000
				}
			}
		}
	}
}
MOTION
Frames: 4
Frame Time: 0.016667
-4.525001 87.295845 6.990206 -1.898348 -1.257662 -18.787567 3.406185 -0.624884 9.669995 -0.487760 0.021079 1.141833 -0.041151 -2.405455 15.144040 -0.786043 -0.584148 9.236109 7.551983 -4.581573 11.414206 0.995744 -1.226351 -0.955258 0.675566 -1.193545 -22.234962 0.000000 0.000000 0.000000 92.556328 -1.310667 10.931443 53.782314 -16.656656 11.626301 -0.390277 21.728621 28.555195 12.820642 29.395605 -1.190904 11.141137 -1.897255 39.659912 -0.000011 0.000000 -27.179922 0.000006 0.000066 -18.892120 0.000007 0.000005 -0.000017 15.769462 0.139285 -9.030091 10.704810 -0.103134 0.088423 10.651503 -0.081318 0.053153 -0.000032 0.000034 0.000005 14.930798 0.032181 -10.477546 10.308168 -0.053505 0.011387 10.303334 -0.016093 0.008174 -0.000007 -0.000060 -0.000010 17.059147 -0.067332 -11.112622 11.839601 0.070209 0.024977 11.776034 0.017304 0.016777 0.000007 -0.000772 0.000016 17.944181 -0.128091 -12.887938 12.753703 0.156717 0.315807 12.848994 0.026627 0.251248 -0.000017 -0.000004 -0.000011 0.000000 0.000000 0.000000 0.000000 0.000000 0.000000 -89.450470 -0.027809 7.516920 -63.314034 6.765728 3.515677 -0.798577 -14.663631 47.763515 -8.465784 -45.417454 -8.256182 -10.632537 1.872291 39.765980 0.000020 0.000034 -26.577261 0.000029 -0.000018 -18.292883 0.002162 -0.000003 0.000394 -14.917046 0.167141 -6.339262 -9.521720 -0.077986 -0.097067 -9.482685 -0.039195 -0.051550 -0.000010 -0.000599 -0.000020 -14.906298 0.060969 -8.548392 -9.610239 -0.039842 -0.018473 -9.620600 -0.006122 -0.012064 0.001108 -0.000018 0.000106 -18.639112 -0.038643 -10.980116 -12.219913 0.064133 -0.056948 -12.063053 0.005328 -0.027418 -0.000253 0.000017 -0.000008 -21.033085 -0.105668 -13.755082 -14.109553 0.116745 -0.301053 -14.099152 -0.005757 -0.255807 -0.000481 0.000011 -0.000039 0.000000 0.000000 0.000000 0.000000 0.000000 0.000000 -2.004557 -9.383688 21.922945 -0.144803 -0.788499 10.376508 -0.296123 -11.119328 13.611939 -1.021394 1.305666 -15.685368 0.000000 0.000000 0.000000 0.000000 0.000000 0.000000 0.000000 0.000000 0.000000 8.247330 -5.962086 17.100674 0.383005 1.100159 18.009762 -4.274619 1.132269 10.558393 0.964619 -1.130511 -19.700775 0.000000 0.000000 0.000000 0.000000 0.000000 0.000000 0.000000 0.000000 0.000000 
-4.554378 87.294601 6.988193 -1.909400 -1.229064 -18.772148 3.405653 -0.621048 9.669107 -0.475414 0.019147 1.141831 -0.040946 -2.394887 15.143168 -0.779356 -0.579547 9.217708 7.554431 -4.574382 11.364497 0.988174 -1.241362 -0.983813 0.672315 -1.191409 -22.215179 0.000000 0.000000 0.000000 92.568428 -1.305155 10.986336 53.780891 -16.960709 11.790304 -0.387425 21.605042 28.119362 12.768866 29.006336 -1.445114 11.136305 -1.897506 39.662182 -0.000009 0.000001 -27.162743 0.000005 0.000066 -18.880909 0.000007 0.000005 -0.000018 15.730394 0.139304 -9.137520 10.672217 -0.103205 0.089282 10.622898 -0.081198 0.053827 -0.000031 0.000035 0.000003 14.901213 0.032388 -10.564240 10.271688 -0.053605 0.012165 10.267246 -0.016208 0.008853 -0.000007 -0.000059 -0.000010 17.037045 -0.067735 -11.152430 11.803583 0.070449 0.024591 11.740320 0.017322 0.016443 0.000006 -0.000754 0.000015 17.931377 -0.130326 -12.889551 12.720130 0.157430 0.314502 12.813258 0.026690 0.248923 -0.000028 -0.000004 -0.000012 0.000000 0.000000 0.000000 0.000000 0.000000 0.000000 -89.483688 -0.024040 7.570958 -63.354885 7.149424 3.486386 -0.792785 -14.556968 47.496838 -8.236478 -44.888855 -8.592821 -10.632388 1.873334 39.765312 0.000019 0.000034 -26.575489 0.000033 -0.000018 -18.293228 0.002141 -0.000003 0.000379 -14.964276 0.167657 -6.477800 -9.518391 -0.078377 -0.099547 -9.481946 -0.039466 -0.053677 -0.000010 -0.000605 -0.000020 -14.925786 0.061246 -8.652967 -9.601123 -0.040080 -0.019453 -9.611080 -0.006288 -0.013036 0.001074 -0.000018 0.000107 -18.615597 -0.039040 -11.023959 -12.198835 0.064787 -0.054725 -12.044344 0.005679 -0.025758 -0.000250 0.000017 -0.000008 -20.989689 -0.108266 -13.742404 -14.072948 0.118427 -0.292643 -14.060796 -0.004846 -0.250107 -0.000458 0.000011 -0.000040 0.000000 0.000000 0.000000 0.000000 0.000000 0.000000 -1.972843 -9.380184 21.911085 -0.144596 -0.785951 10.379930 -0.301517 -11.133052 13.605441 -1.017835 1.301936 -15.693908 0.000000 0.000000 0.000000 0.000000 0.000000 0.000000 0.000000 0.000000 0.000000 8.266292 -5.986093 17.057407 0.383352 1.099987 18.035400 -4.270053 1.086224 10.568680 0.963338 -1.128302 -19.706020 0.000000 0.000000 0.000000 0.000000 0.000000 0.000000 0.000000 0.000000 0.000000 
-4.584768 87.293709 6.985295 -1.921006 -1.201955 -18.757956 3.405722 -0.617501 9.669373 -0.462591 0.017711 1.141696 -0.040575 -2.384588 15.144373 -0.772548 -0.574372 9.199296 7.564260 -4.575448 11.324203 0.980085 -1.260678 -1.006739 0.670780 -1.189546 -22.199207 0.000000 0.000000 0.000000 92.579742 -1.299711 11.042864 53.782776 -17.298080 11.964494 -0.385783 21.466728 27.697746 12.706071 28.618616 -1.691941 11.129559 -1.897590 39.665138 -0.000006 0.000002 -27.142199 0.000003 0.000066 -18.867079 0.000007 0.000005 -0.000018 15.686680 0.139317 -9.242904 10.639885 -0.103108 0.089921 10.594293 -0.080927 0.054288 -0.000029 0.000035 0.000002 14.864460 0.032623 -10.648945 10.235315 -0.053621 0.012792 10.231229 -0.016263 0.009395 -0.000007 -0.000058 -0.000009 17.005386 -0.068158 -11.188437 11.767921 0.070555 0.024648 11.705162 0.017220 0.016444 0.000006 -0.000730 0.000015 17.907621 -0.132732 -12.883906 12.686674 0.157581 0.314572 12.777248 0.026324 0.247872 -0.000039 -0.000004 -0.000013 0.000000 0.000000 0.000000 0.000000 0.000000 0.000000 -89.521866 -0.021435 7.630340 -63.391304 7.585473 3.463994 -0.783932 -14.434217 47.231487 -8.017411 -44.329422 -8.915946 -10.631583 1.874260 39.764984 0.000018 0.000034 -26.572031 0.000036 -0.000018 -18.292650 0.002123 -0.000003 0.000359 -15.018050 0.168294 -6.621236 -9.518370 -0.078538 -0.101159 -9.484235 -0.039536 -0.055062 -0.000010 -0.000611 -0.000019 -14.949199 0.061579 -8.760397 -9.595140 -0.040230 -0.020055 -9.604198 -0.006377 -0.013740 0.001043 -0.000018 0.000108 -18.593460 -0.039461 -11.067332 -12.179290 0.065273 -0.052829 -12.027072 0.005923 -0.024396 -0.000245 0.000017 -0.000008 -20.944422 -0.111002 -13.725491 -14.035902 0.119672 -0.285001 -14.021950 -0.004212 -0.245060 -0.000437 0.000010 -0.000040 0.000000 0.000000 0.000000 0.000000 0.000000 0.000000 -1.940809 -9.375870 21.899549 -0.144377 -0.783066 10.384811 -0.306694 -11.145367 13.596933 -1.014211 1.298103 -15.701375 0.000000 0.000000 0.000000 0.000000 0.000000 0.000000 0.000000 0.000000 0.000000 8.285513 -6.008639 17.015238 0.383705 1.100089 18.060369 -4.264430 1.041932 10.579440 0.962433 -1.126498 -19.710869 0.000000 0.000000 0.000000 0.000000 0.000000 0.000000 0.000000 0.000000 0.000000 
-4.615531 87.293114 6.981414 -1.933265 -1.176396 -18.745773 3.406752 -0.614442 9.671271 -0.449754 0.016719 1.142311 -0.039358 -2.375125 15.147088 -0.766186 -0.568587 9.181166 7.579966 -4.583372 11.292480 0.971964 -1.283143 -1.024137 0.670586 -1.188011 -22.186640 0.000000 0.000000 0.000000 92.591057 -1.294749 11.101110 53.786079 -17.674036 12.149852 -0.385169 21.310154 27.285692 12.629178 28.230650 -1.934975 11.119979 -1.897467 39.669170 -0.000004 0.000003 -27.116144 0.000003 0.000066 -18.849022 0.000008 0.000005 -0.000018 15.633964 0.139314 -9.347101 10.606447 -0.102887 0.090368 10.564330 -0.080538 0.054544 -0.000028 0.000036 0.000000 14.816469 0.032886 -10.732607 10.197690 -0.053570 0.013267 10.193954 -0.016274 0.009802 -0.000007 -0.000057 -0.000008 16.959736 -0.068609 -11.221096 11.730883 0.070561 0.025141 11.668839 0.017018 0.016761 0.000006 -0.000697 0.000015 17.868652 -0.135306 -12.870833 12.651279 0.157251 0.315950 12.738905 0.025610 0.248065 -0.000051 -0.000004 -0.000014 0.000000 0.000000 0.000000 0.000000 0.000000 0.000000 -89.565125 -0.019443 7.694466 -63.422100 8.066822 3.451090 -0.772577 -14.292892 46.960510 -7.804803 -43.738922 -9.228034 -10.629502 1.875037 39.765205 0.000017 0.000034 -26.565434 0.000039 -0.000018 -18.290174 0.002107 -0.000004 0.000334 -15.076822 0.169087 -6.770125 -9.521046 -0.078497 -0.102021 -9.489012 -0.039437 -0.055788 -0.000010 -0.000615 -0.000019 -14.974311 0.061986 -8.871456 -9.591743 -0.040308 -0.020326 -9.599303 -0.006403 -0.014218 0.001015 -0.000019 0.000110 -18.570169 -0.039898 -11.110180 -12.160254 0.065629 -0.051213 -12.010265 0.006087 -0.023295 -0.000238 0.000017 -0.000008 -20.894800 -0.113776 -13.703971 -13.997121 0.120565 -0.277996 -13.981467 -0.003778 -0.240553 -0.000420 0.000010 -0.000040 0.000000 0.000000 0.000000 0.000000 0.000000 0.000000 -1.909084 -9.371420 21.888739 -0.144127 -0.779874 10.390815 -0.311338 -11.156592 13.586826 -1.010588 1.294230 -15.707445 0.000000 0.000000 0.000000 0.000000 0.000000 0.000000 0.000000 0.000000 0.000000 8.304580 -6.030521 16.974613 0.384029 1.100466 18.085100 -4.257309 0.999256 10.589301 0.961813 -1.125043 -19.714735 0.000000 0.000000 0.000000 0.000000 0.000000 0.000000 0.000000 0.000000 0.000000 
